<svg viewBox="0 0 21 33" fill="none" xmlns="http://www.w3.org/2000/svg">
<path d="M1.5 10.365V22.5001C1.5 24.8871 2.44822 27.1763 4.13605 28.8641C5.82389 30.5519 8.11309 31.5002 10.5 31.5002C12.887 31.5002 15.1762 30.5519 16.864 28.8641C18.5519 27.1763 19.5001 24.8871 19.5001 22.5001V7.50003C19.5001 5.90873 18.868 4.38259 17.7427 3.25737C16.6175 2.13214 15.0914 1.5 13.5001 1.5C11.9088 1.5 10.3826 2.13214 9.2574 3.25737C8.13218 4.38259 7.50003 5.90873 7.50003 7.50003V21.2731C7.50003 21.6671 7.57763 22.0572 7.72839 22.4212C7.87916 22.7851 8.10014 23.1159 8.37872 23.3944C8.65729 23.673 8.98801 23.894 9.35199 24.0448C9.71597 24.1955 10.1061 24.2731 10.5 24.2731V24.2731C11.2957 24.2731 12.0588 23.9571 12.6214 23.3944C13.184 22.8318 13.5001 22.0688 13.5001 21.2731V10.5" stroke="white" stroke-width="3" stroke-linecap="round" stroke-linejoin="round"/>
</svg>
